<?xml version="1.0" encoding="UTF-8" standalone="no"?>
<!DOCTYPE svg PUBLIC "-//W3C//DTD SVG 1.1//EN" "http://www.w3.org/Graphics/SVG/1.1/DTD/svg11.dtd">
<svg width="100%" height="100%" viewBox="0 0 293 306" version="1.1" xmlns="http://www.w3.org/2000/svg" xmlns:xlink="http://www.w3.org/1999/xlink" xml:space="preserve" xmlns:serif="http://www.serif.com/" style="fill-rule:evenodd;clip-rule:evenodd;stroke-linejoin:round;stroke-miterlimit:2;">
    <g transform="matrix(1,0,0,1,-1221.221175,-1103.153531)">
        <g transform="matrix(1.489215,0,0,1.489215,-330.253082,-579.679558)">
            <g transform="matrix(0,4.166667,4.166667,0,-1897.762917,884.774583)">
                <path d="M91.983,735.133C94.445,735.133 96.444,737.173 96.444,739.686C96.444,742.199 94.445,744.239 91.983,744.239C89.521,744.239 87.522,742.199 87.522,739.686C87.522,737.173 89.521,735.133 91.983,735.133" style="fill:rgb(239,125,32);"/>
            </g>
            <g transform="matrix(3.589608,2.115614,2.115614,-3.589608,-737.393181,3716.015865)">
                <path d="M94.337,748.409C96.838,748.454 98.867,750.499 98.867,752.974C98.867,755.449 96.837,757.422 94.337,757.378C91.838,757.333 89.808,755.288 89.809,752.813C89.808,750.338 91.838,748.364 94.337,748.409" style="fill:rgb(239,125,32);"/>
            </g>
            <g transform="matrix(3.589954,-2.115028,-2.115028,-3.589954,2460.382663,4087.193704)">
                <path d="M83.442,757.331C85.942,757.287 87.971,759.261 87.971,761.736C87.971,764.21 85.941,766.256 83.442,766.299C80.941,766.344 78.912,764.37 78.912,761.895C78.912,759.42 80.942,757.375 83.442,757.331" style="fill:rgb(239,125,32);"/>
            </g>
            <g transform="matrix(0,-4.166667,-4.166667,0,4249.707708,1491.376042)">
                <path d="M70.803,752.334C73.265,752.334 75.264,754.374 75.264,756.888C75.264,759.4 73.265,761.44 70.803,761.44C68.34,761.44 66.342,759.4 66.342,756.888C66.342,754.374 68.34,752.334 70.803,752.334" style="fill:rgb(239,125,32);"/>
            </g>
            <g transform="matrix(-3.589657,-2.115531,-2.115531,3.589657,2905.031253,-1272.795483)">
                <path d="M68.448,739.123C70.949,739.168 72.978,741.213 72.978,743.688C72.978,746.163 70.948,748.136 68.448,748.092C65.949,748.048 63.919,746.002 63.919,743.528C63.918,741.052 65.949,739.079 68.448,739.123" style="fill:rgb(239,125,32);"/>
            </g>
            <g transform="matrix(-3.589724,2.115419,2.115419,3.589724,-137.060095,-1515.728586)">
                <path d="M79.407,730.116C81.905,730.072 83.932,732.043 83.932,734.515C83.933,736.987 81.905,739.031 79.407,739.075C76.91,739.119 74.883,737.148 74.883,734.676C74.882,732.204 76.91,730.16 79.407,730.116" style="fill:rgb(239,125,32);"/>
            </g>
            <g transform="matrix(0,4.166667,4.166667,0,-1867.86125,844.2075)">
                <path d="M100.439,736.413C102.901,736.413 104.9,738.453 104.9,740.966C104.9,743.479 102.901,745.519 100.439,745.519C97.977,745.519 95.978,743.479 95.978,740.966C95.978,738.453 97.977,736.413 100.439,736.413" style="fill:rgb(239,125,32);"/>
            </g>
            <g transform="matrix(3.589669,2.115511,2.115511,-3.589669,-752.066874,3705.011214)">
                <path d="M97.434,756.224C99.935,756.269 101.964,758.313 101.964,760.789C101.964,763.263 99.934,765.237 97.434,765.193C94.934,765.148 92.905,763.103 92.904,760.628C92.905,758.153 94.935,756.18 97.434,756.224" style="fill:rgb(239,125,32);"/>
            </g>
            <g transform="matrix(3.589974,-2.114994,-2.114994,-3.589974,2471.085487,4072.103081)">
                <path d="M78.082,763.866C80.582,763.823 82.612,765.796 82.612,768.271C82.612,770.745 80.582,772.791 78.082,772.834C75.582,772.879 73.553,770.905 73.553,768.43C73.553,765.955 75.583,763.91 78.082,763.866" style="fill:rgb(239,125,32);"/>
            </g>
            <g transform="matrix(0,-4.166667,-4.166667,0,4209.141042,1461.474792)">
                <path d="M62.346,751.054C64.809,751.054 66.808,753.094 66.808,755.608C66.808,758.12 64.809,760.16 62.346,760.16C59.884,760.16 57.886,758.12 57.886,755.608C57.886,753.094 59.884,751.054 62.346,751.054" style="fill:rgb(239,125,32);"/>
            </g>
            <g transform="matrix(-3.58969,-2.115476,-2.115476,3.58969,2864.439921,-1218.75991)">
                <path d="M65.352,731.308C67.852,731.353 69.88,733.398 69.881,735.874C69.881,738.348 67.851,740.321 65.352,740.277C62.851,740.232 60.822,738.187 60.822,735.712C60.822,733.237 62.852,731.265 65.352,731.308" style="fill:rgb(239,125,32);"/>
            </g>
            <g transform="matrix(-3.58976,2.115357,2.115357,3.58976,-81.676895,-1476.44102)">
                <path d="M84.762,723.587C87.259,723.544 89.286,725.515 89.286,727.987C89.286,730.459 87.258,732.503 84.762,732.547C82.264,732.591 80.237,730.62 80.237,728.148C80.236,725.676 82.264,723.632 84.762,723.587" style="fill:rgb(239,125,32);"/>
            </g>
        </g>
    </g>
</svg>
