<?xml version="1.0" encoding="UTF-8" standalone="no"?>
<!DOCTYPE svg PUBLIC "-//W3C//DTD SVG 1.1//EN" "http://www.w3.org/Graphics/SVG/1.1/DTD/svg11.dtd">
<svg width="100%" height="100%" viewBox="0 0 1066 357" version="1.1" xmlns="http://www.w3.org/2000/svg" xmlns:xlink="http://www.w3.org/1999/xlink" xml:space="preserve" xmlns:serif="http://www.serif.com/" style="fill-rule:evenodd;clip-rule:evenodd;stroke-linejoin:round;stroke-miterlimit:2;">
    <g transform="matrix(1,0,0,1,-1221.221175,-1062.084571)">
        <g transform="matrix(1.489215,0,0,1.489215,-330.253082,-579.679558)">
            <g transform="matrix(4.166667,0,0,4.166667,801,-1931.182083)">
                <path d="M135.022,740.027L135.022,754.604C135.022,758.394 132.951,760.102 129.956,760.102C127.339,760.102 125.215,758.553 125.215,755.243L125.215,740.027L117.039,740.027L117.039,756.419C117.039,763.627 121.726,767.471 127.23,767.471C130.827,767.471 133.551,766.19 135.022,764.213L135.022,766.725L143.196,766.725L143.196,740.027L135.022,740.027Z" style="fill:white;fill-rule:nonzero;"/>
            </g>
            <g transform="matrix(4.166667,0,0,4.166667,801,-1937.404167)">
                <path d="M160.629,740.773C157.031,740.773 154.308,742.054 152.837,744.03L152.837,741.521L144.663,741.521L144.663,768.219L152.837,768.219L152.837,753.642C152.837,749.85 154.908,748.14 157.906,748.14C160.521,748.14 162.647,749.69 162.647,753L162.647,768.219L170.821,768.219L170.821,751.825C170.821,744.616 166.133,740.773 160.629,740.773" style="fill:white;fill-rule:nonzero;"/>
            </g>
            <g transform="matrix(4.166667,0,0,4.166667,801,-1984.117917)">
                <path d="M176.403,750.383C179.073,750.383 181.307,748.194 181.307,745.577C181.307,742.962 179.073,740.773 176.403,740.773C173.733,740.773 171.498,742.962 171.498,745.577C171.498,748.194 173.733,750.383 176.403,750.383ZM172.317,779.43L180.491,779.43L180.491,752.734L172.317,752.734L172.317,779.43Z" style="fill:rgb(239,125,33);fill-rule:nonzero;"/>
            </g>
            <g transform="matrix(4.166667,0,0,4.166667,801,-1960.989583)">
                <path d="M199.865,754.87L199.865,747.181L194.252,747.181L194.252,739.707L186.076,742.11L186.076,747.181L181.717,747.181L181.717,754.87L186.076,754.87L186.076,764.321C186.076,771.794 189.183,774.945 199.865,773.879L199.865,766.615C196.267,766.829 194.252,766.615 194.252,764.321L194.252,754.87L199.865,754.87Z" style="fill:white;fill-rule:nonzero;"/>
            </g>
            <g transform="matrix(4.166667,0,0,4.166667,801,-1938.83)">
                <path d="M209.826,757.869L229.17,757.869C229.389,756.856 229.497,755.788 229.497,754.666C229.497,746.603 223.613,740.572 215.657,740.572C207.046,740.572 201.161,746.711 201.161,754.666C201.161,762.622 206.938,768.762 216.258,768.762C221.434,768.762 225.464,766.892 228.136,763.262L221.596,759.577C220.507,760.752 218.599,761.607 216.367,761.607C213.366,761.607 210.861,760.646 209.826,757.869ZM209.664,751.891C210.427,749.167 212.499,747.671 215.603,747.671C218.055,747.671 220.507,748.794 221.379,751.891L209.664,751.891Z" style="fill:white;fill-rule:nonzero;"/>
            </g>
            <g transform="matrix(4.166667,0,0,4.166667,801,-1761.99625)">
                <path d="M118.245,733.473L118.245,733.466L118.257,733.466C118.261,733.466 118.264,733.464 118.266,733.462C118.268,733.46 118.269,733.458 118.269,733.455L118.269,733.439C118.269,733.436 118.268,733.432 118.266,733.431C118.264,733.429 118.261,733.427 118.257,733.427L118.245,733.427L118.245,733.421L118.257,733.421C118.263,733.421 118.268,733.423 118.271,733.425C118.275,733.429 118.277,733.434 118.277,733.439L118.277,733.455C118.277,733.458 118.276,733.462 118.275,733.464C118.273,733.466 118.271,733.469 118.268,733.471C118.265,733.472 118.261,733.473 118.257,733.473L118.245,733.473ZM118.24,733.473L118.24,733.421L118.248,733.421L118.248,733.473L118.24,733.473ZM124.604,733.473L124.604,733.421L124.611,733.421L124.611,733.473L124.604,733.473ZM124.607,733.473L124.607,733.466L124.637,733.466L124.637,733.473L124.607,733.473ZM124.607,733.45L124.607,733.444L124.633,733.444L124.633,733.45L124.607,733.45ZM124.607,733.427L124.607,733.421L124.637,733.421L124.637,733.427L124.607,733.427ZM130.969,733.473L130.952,733.421L130.96,733.421L130.973,733.462L130.986,733.421L130.994,733.421L130.976,733.473L130.969,733.473ZM137.313,733.473L137.313,733.421L137.32,733.421L137.32,733.473L137.313,733.473ZM137.316,733.473L137.316,733.466L137.347,733.466L137.347,733.473L137.316,733.473ZM137.316,733.45L137.316,733.444L137.343,733.444L137.343,733.45L137.316,733.45ZM137.316,733.427L137.316,733.421L137.347,733.421L137.347,733.427L137.316,733.427ZM143.667,733.473L143.667,733.421L143.675,733.421L143.675,733.473L143.667,733.473ZM143.671,733.473L143.671,733.466L143.701,733.466L143.701,733.473L143.671,733.473ZM150.042,733.473C150.038,733.473 150.035,733.473 150.032,733.471C150.03,733.469 150.027,733.467 150.026,733.464C150.024,733.462 150.023,733.458 150.023,733.455L150.023,733.439C150.023,733.436 150.024,733.432 150.026,733.43C150.027,733.427 150.03,733.425 150.032,733.423C150.035,733.421 150.038,733.421 150.042,733.421C150.046,733.421 150.049,733.421 150.051,733.423C150.054,733.425 150.056,733.427 150.058,733.43C150.06,733.432 150.06,733.436 150.06,733.439L150.06,733.455C150.06,733.458 150.06,733.462 150.058,733.464C150.056,733.467 150.054,733.469 150.051,733.471C150.049,733.473 150.046,733.473 150.042,733.473ZM150.042,733.466C150.045,733.466 150.048,733.464 150.05,733.463C150.052,733.46 150.053,733.458 150.053,733.455L150.053,733.439C150.053,733.436 150.052,733.433 150.05,733.431C150.048,733.428 150.045,733.427 150.042,733.427C150.039,733.427 150.036,733.428 150.034,733.431C150.032,733.433 150.031,733.436 150.031,733.439L150.031,733.455C150.031,733.458 150.032,733.46 150.034,733.463C150.036,733.464 150.039,733.466 150.042,733.466ZM156.384,733.453L156.384,733.446L156.401,733.446C156.404,733.446 156.405,733.444 156.407,733.444C156.409,733.441 156.409,733.439 156.409,733.437C156.409,733.434 156.409,733.432 156.407,733.43C156.405,733.428 156.404,733.427 156.401,733.427L156.384,733.427L156.384,733.421L156.401,733.421C156.404,733.421 156.407,733.422 156.409,733.423C156.412,733.425 156.414,733.426 156.415,733.428C156.416,733.431 156.417,733.434 156.417,733.437C156.417,733.44 156.416,733.443 156.415,733.446C156.414,733.448 156.412,733.449 156.409,733.45C156.407,733.452 156.404,733.453 156.401,733.453L156.384,733.453ZM156.381,733.473L156.381,733.421L156.388,733.421L156.388,733.473L156.381,733.473ZM162.736,733.473L162.736,733.421L162.743,733.421L162.743,733.473L162.736,733.473ZM162.74,733.473L162.74,733.466L162.77,733.466L162.77,733.473L162.74,733.473ZM162.74,733.45L162.74,733.444L162.766,733.444L162.766,733.45L162.74,733.45ZM162.74,733.427L162.74,733.421L162.77,733.421L162.77,733.427L162.74,733.427ZM169.094,733.45L169.094,733.444L169.111,733.444C169.113,733.444 169.115,733.444 169.117,733.441C169.118,733.44 169.119,733.439 169.119,733.436C169.119,733.434 169.118,733.432 169.117,733.43C169.115,733.428 169.113,733.427 169.111,733.427L169.094,733.427L169.094,733.421L169.111,733.421C169.114,733.421 169.117,733.422 169.119,733.423C169.121,733.424 169.123,733.425 169.124,733.428C169.126,733.43 169.126,733.432 169.126,733.436C169.126,733.439 169.125,733.441 169.124,733.444C169.123,733.446 169.121,733.448 169.119,733.448C169.117,733.45 169.114,733.45 169.111,733.45L169.094,733.45ZM169.09,733.473L169.09,733.421L169.097,733.421L169.097,733.473L169.09,733.473ZM169.12,733.473L169.108,733.449L169.115,733.448L169.129,733.473L169.12,733.473ZM175.466,733.473C175.464,733.473 175.461,733.473 175.459,733.473C175.457,733.472 175.455,733.471 175.453,733.471C175.451,733.469 175.449,733.469 175.447,733.466L175.452,733.461C175.454,733.463 175.456,733.464 175.458,733.465C175.461,733.466 175.463,733.466 175.466,733.466C175.47,733.466 175.473,733.466 175.475,733.464C175.477,733.463 175.478,733.461 175.478,733.458C175.478,733.457 175.478,733.455 175.476,733.454C175.476,733.453 175.474,733.452 175.472,733.451C175.471,733.45 175.469,733.45 175.467,733.45C175.465,733.45 175.463,733.45 175.461,733.448C175.459,733.448 175.457,733.448 175.455,733.447C175.454,733.446 175.452,733.444 175.451,733.443C175.45,733.441 175.449,733.439 175.449,733.436C175.449,733.431 175.452,733.427 175.455,733.425C175.458,733.422 175.462,733.421 175.469,733.421C175.471,733.421 175.474,733.421 175.476,733.422C175.479,733.423 175.482,733.424 175.485,733.425L175.48,733.432C175.478,733.43 175.476,733.429 175.474,733.428C175.472,733.427 175.47,733.427 175.469,733.427C175.465,733.427 175.462,733.428 175.46,733.43C175.458,733.431 175.457,733.432 175.457,733.435C175.457,733.437 175.458,733.439 175.459,733.44C175.46,733.441 175.461,733.441 175.463,733.442C175.465,733.442 175.467,733.443 175.469,733.444C175.471,733.444 175.473,733.444 175.475,733.444C175.477,733.446 175.479,733.446 175.48,733.447C175.482,733.448 175.483,733.45 175.484,733.451C175.485,733.453 175.486,733.455 175.486,733.458C175.486,733.463 175.484,733.466 175.48,733.469C175.477,733.472 175.472,733.473 175.466,733.473" style="fill:rgb(28,25,23);"/>
            </g>
            <g transform="matrix(4.166667,0,0,4.166667,801,-1727.235417)">
                <path d="M146.606,722.824C144.393,723.371 143.353,724.007 142.719,726.125C141.916,728.809 141.572,735.01 146.21,736.155C148.11,736.625 151.173,736.627 153.042,736.221C157.747,735.201 157.729,729.729 156.923,726.424C155.826,721.924 149.735,722.05 146.606,722.824ZM148.337,725.28C147.007,725.585 146.571,725.901 146.171,727.243C145.395,729.85 145.499,735.225 151.467,733.733C153.655,733.185 153.881,730.254 153.489,727.836C153.091,725.375 151.077,724.649 148.337,725.28" style="fill:white;"/>
            </g>
            <g transform="matrix(4.166667,0,0,4.166667,801,-1726.57125)">
                <path d="M188.783,736.076L192.216,736.066L193.581,732.727L200.196,732.696L201.552,736.066L205,736.07C204.657,734.461 202.629,730.29 201.895,728.555C199.479,722.84 200.199,722.621 197.101,722.623C194.365,722.626 194.477,722.316 193.569,724.506C192.642,726.744 188.976,734.912 188.783,736.076ZM194.681,730.159L199.037,730.215C198.924,729.404 198.372,728.294 198.076,727.571C197.805,726.908 197.537,725.48 196.908,725.114C196.251,725.374 196.347,725.969 195.704,727.523C195.338,728.408 194.901,729.346 194.681,730.159" style="fill:white;"/>
            </g>
            <g transform="matrix(4.166667,0,0,4.166667,801,-1725.415)">
                <path d="M128.591,732.802C126.513,733.855 122.41,732.782 120.017,733.269L119.829,735.432C121.512,736.158 125.469,736.128 127.443,736.002C130.175,735.826 132.046,735.181 132.164,732.413C132.33,728.57 128.956,728.205 125.006,727.221C123.569,726.864 122.795,726.716 123.179,725.191C124.842,724.48 129.152,724.813 131.323,724.876L131.523,722.76C130.044,721.956 125.847,722.016 123.951,722.159C121.213,722.363 119.533,723.12 119.599,725.979C119.679,729.407 123.133,729.919 126.912,730.859C128.248,731.191 128.928,731.367 128.591,732.802" style="fill:white;"/>
            </g>
            <g transform="matrix(4.166667,0,0,4.166667,801,-1721.3)">
                <path d="M180.198,734.658L180.078,732.253C176.135,731.505 172.382,733.524 172.326,730.678C172.266,727.595 172.438,724.437 172.312,721.36L168.959,721.367C168.852,723.213 168.674,732.349 169.279,733.38C170.681,735.766 177.094,734.778 180.198,734.658" style="fill:white;"/>
            </g>
            <g transform="matrix(4.166667,0,0,4.166667,801,-1728.7825)">
                <path d="M216.01,724.323L216.026,736.556L219.376,736.601L219.4,731.448C225.702,731.352 224.077,731.731 225.999,736.591L229.497,736.607C229.394,735.72 228.597,733.91 228.222,732.946C227.46,730.992 227.615,731.168 225.722,730.379C226.183,730.142 230.12,729.713 228.729,725.434C227.716,722.316 221.509,722.915 217.892,723.04C216.155,723.099 216.01,722.765 216.01,724.323ZM219.407,728.994C220.741,728.943 222.013,729.034 223.277,728.963C224.616,728.889 225.424,728.679 225.479,727.35C225.59,724.683 221.648,725.482 219.444,725.461L219.407,728.994Z" style="fill:white;"/>
            </g>
            <g transform="matrix(0,4.166667,4.166667,0,-1897.762917,884.774583)">
                <path d="M91.983,735.133C94.445,735.133 96.444,737.173 96.444,739.686C96.444,742.199 94.445,744.239 91.983,744.239C89.521,744.239 87.522,742.199 87.522,739.686C87.522,737.173 89.521,735.133 91.983,735.133" style="fill:rgb(239,125,32);"/>
            </g>
            <g transform="matrix(3.589608,2.115614,2.115614,-3.589608,-737.393181,3716.015865)">
                <path d="M94.337,748.409C96.838,748.454 98.867,750.499 98.867,752.974C98.867,755.449 96.837,757.422 94.337,757.378C91.838,757.333 89.808,755.288 89.809,752.813C89.808,750.338 91.838,748.364 94.337,748.409" style="fill:rgb(239,125,32);"/>
            </g>
            <g transform="matrix(3.589954,-2.115028,-2.115028,-3.589954,2460.382663,4087.193704)">
                <path d="M83.442,757.331C85.942,757.287 87.971,759.261 87.971,761.736C87.971,764.21 85.941,766.256 83.442,766.299C80.941,766.344 78.912,764.37 78.912,761.895C78.912,759.42 80.942,757.375 83.442,757.331" style="fill:rgb(239,125,32);"/>
            </g>
            <g transform="matrix(0,-4.166667,-4.166667,0,4249.707708,1491.376042)">
                <path d="M70.803,752.334C73.265,752.334 75.264,754.374 75.264,756.888C75.264,759.4 73.265,761.44 70.803,761.44C68.34,761.44 66.342,759.4 66.342,756.888C66.342,754.374 68.34,752.334 70.803,752.334" style="fill:rgb(239,125,32);"/>
            </g>
            <g transform="matrix(-3.589657,-2.115531,-2.115531,3.589657,2905.031253,-1272.795483)">
                <path d="M68.448,739.123C70.949,739.168 72.978,741.213 72.978,743.688C72.978,746.163 70.948,748.136 68.448,748.092C65.949,748.048 63.919,746.002 63.919,743.528C63.918,741.052 65.949,739.079 68.448,739.123" style="fill:rgb(239,125,32);"/>
            </g>
            <g transform="matrix(-3.589724,2.115419,2.115419,3.589724,-137.060095,-1515.728586)">
                <path d="M79.407,730.116C81.905,730.072 83.932,732.043 83.932,734.515C83.933,736.987 81.905,739.031 79.407,739.075C76.91,739.119 74.883,737.148 74.883,734.676C74.882,732.204 76.91,730.16 79.407,730.116" style="fill:rgb(239,125,32);"/>
            </g>
            <g transform="matrix(0,4.166667,4.166667,0,-1867.86125,844.2075)">
                <path d="M100.439,736.413C102.901,736.413 104.9,738.453 104.9,740.966C104.9,743.479 102.901,745.519 100.439,745.519C97.977,745.519 95.978,743.479 95.978,740.966C95.978,738.453 97.977,736.413 100.439,736.413" style="fill:rgb(239,125,32);"/>
            </g>
            <g transform="matrix(3.589669,2.115511,2.115511,-3.589669,-752.066874,3705.011214)">
                <path d="M97.434,756.224C99.935,756.269 101.964,758.313 101.964,760.789C101.964,763.263 99.934,765.237 97.434,765.193C94.934,765.148 92.905,763.103 92.904,760.628C92.905,758.153 94.935,756.18 97.434,756.224" style="fill:rgb(239,125,32);"/>
            </g>
            <g transform="matrix(3.589974,-2.114994,-2.114994,-3.589974,2471.085487,4072.103081)">
                <path d="M78.082,763.866C80.582,763.823 82.612,765.796 82.612,768.271C82.612,770.745 80.582,772.791 78.082,772.834C75.582,772.879 73.553,770.905 73.553,768.43C73.553,765.955 75.583,763.91 78.082,763.866" style="fill:rgb(239,125,32);"/>
            </g>
            <g transform="matrix(0,-4.166667,-4.166667,0,4209.141042,1461.474792)">
                <path d="M62.346,751.054C64.809,751.054 66.808,753.094 66.808,755.608C66.808,758.12 64.809,760.16 62.346,760.16C59.884,760.16 57.886,758.12 57.886,755.608C57.886,753.094 59.884,751.054 62.346,751.054" style="fill:rgb(239,125,32);"/>
            </g>
            <g transform="matrix(-3.58969,-2.115476,-2.115476,3.58969,2864.439921,-1218.75991)">
                <path d="M65.352,731.308C67.852,731.353 69.88,733.398 69.881,735.874C69.881,738.348 67.851,740.321 65.352,740.277C62.851,740.232 60.822,738.187 60.822,735.712C60.822,733.237 62.852,731.265 65.352,731.308" style="fill:rgb(239,125,32);"/>
            </g>
            <g transform="matrix(-3.58976,2.115357,2.115357,3.58976,-81.676895,-1476.44102)">
                <path d="M84.762,723.587C87.259,723.544 89.286,725.515 89.286,727.987C89.286,730.459 87.258,732.503 84.762,732.547C82.264,732.591 80.237,730.62 80.237,728.148C80.236,725.676 82.264,723.632 84.762,723.587" style="fill:rgb(239,125,32);"/>
            </g>
        </g>
    </g>
</svg>
